<svg width="900" height="430" viewBox="0 0 900 430" xmlns="http://www.w3.org/2000/svg" role="img">
  <title>IPv6 Failure Points — 5 Root Causes</title>
  <desc>Five root cause failure points annotated on the IPv6 path from PLDT ISP to internet, plus NoPrefixAvail ISP-side failure</desc>
  <defs>
    <marker id="arr" viewBox="0 0 10 10" refX="8" refY="5" markerWidth="6" markerHeight="6" orient="auto-start-reverse">
      <path d="M2 1L8 5L2 9" fill="none" stroke="#58a6ff" stroke-width="1.5" stroke-linecap="round" stroke-linejoin="round"/>
    </marker>
    <marker id="arr-red" viewBox="0 0 10 10" refX="8" refY="5" markerWidth="6" markerHeight="6" orient="auto-start-reverse">
      <path d="M2 1L8 5L2 9" fill="none" stroke="#f85149" stroke-width="1.5" stroke-linecap="round" stroke-linejoin="round"/>
    </marker>
    <marker id="arr-amber" viewBox="0 0 10 10" refX="8" refY="5" markerWidth="6" markerHeight="6" orient="auto-start-reverse">
      <path d="M2 1L8 5L2 9" fill="none" stroke="#d29922" stroke-width="1.5" stroke-linecap="round" stroke-linejoin="round"/>
    </marker>
  </defs>
  <rect width="900" height="430" fill="#0d1117" rx="12"/>
  <text x="450" y="28" text-anchor="middle" fill="#8b949e" font-family="monospace" font-size="11" font-weight="600" letter-spacing="2">IPv6 FAILURE POINTS — ROOT CAUSE MAP</text>
  <!-- TOP RAIL -->
  <rect x="30" y="50" width="110" height="56" rx="6" fill="#0d1f36" stroke="#1f4068" stroke-width="1.5"/>
  <text x="85" y="74" text-anchor="middle" fill="#58a6ff" font-family="monospace" font-size="12" font-weight="700">PLDT ISP</text>
  <text x="85" y="92" text-anchor="middle" fill="#444c56" font-family="monospace" font-size="9">RA + DHCPv6</text>
  <line x1="142" y1="78" x2="198" y2="78" stroke="#58a6ff" stroke-width="1.5" marker-end="url(#arr)"/>
  <rect x="200" y="50" width="130" height="56" rx="6" fill="#0d2a16" stroke="#238636" stroke-width="1.5"/>
  <text x="265" y="74" text-anchor="middle" fill="#3fb950" font-family="monospace" font-size="12" font-weight="700">OpenWrt</text>
  <text x="265" y="92" text-anchor="middle" fill="#444c56" font-family="monospace" font-size="9">wan6 / eth1</text>
  <line x1="332" y1="78" x2="448" y2="78" stroke="#58a6ff" stroke-width="1.5" marker-end="url(#arr)"/>
  <rect x="450" y="50" width="110" height="56" rx="6" fill="#161b22" stroke="#30363d" stroke-width="1.5"/>
  <text x="505" y="74" text-anchor="middle" fill="#8b949e" font-family="monospace" font-size="12" font-weight="700">Internet</text>
  <text x="505" y="92" text-anchor="middle" fill="#39d0c8" font-family="monospace" font-size="9">IPv6 global</text>
  <!-- FAILURE 1: /128 (primary) -->
  <line x1="400" y1="78" x2="400" y2="118" stroke="#f85149" stroke-width="1.5" stroke-dasharray="4 3" marker-end="url(#arr-red)"/>
  <rect x="280" y="120" width="240" height="68" rx="6" fill="#2a0d0d" stroke="#6e1a1a" stroke-width="1.5"/>
  <rect x="280" y="120" width="240" height="20" rx="6" fill="#6e1a1a"/>
  <rect x="280" y="130" width="240" height="10" fill="#6e1a1a"/>
  <text x="400" y="135" text-anchor="middle" fill="#f85149" font-family="monospace" font-size="11" font-weight="700">PRIMARY — /128 IA_NA drop</text>
  <text x="400" y="154" text-anchor="middle" fill="#e07070" font-family="monospace" font-size="10">Linux prefers /128 as source address</text>
  <text x="400" y="170" text-anchor="middle" fill="#956060" font-family="monospace" font-size="9">PLDT silently drops ALL outbound traffic</text>
  <!-- FAILURE 2: dead gateway -->
  <line x1="142" y1="78" x2="142" y2="118" stroke="#d29922" stroke-width="1.5" stroke-dasharray="4 3" marker-end="url(#arr-amber)"/>
  <rect x="30" y="120" width="222" height="68" rx="6" fill="#2a1f0d" stroke="#5a3e0a" stroke-width="1.5"/>
  <rect x="30" y="120" width="222" height="20" rx="6" fill="#5a3e0a"/>
  <rect x="30" y="130" width="222" height="10" fill="#5a3e0a"/>
  <text x="141" y="135" text-anchor="middle" fill="#d29922" font-family="monospace" font-size="11" font-weight="700">FAIL 2 — dead RA gateway</text>
  <text x="141" y="154" text-anchor="middle" fill="#b89040" font-family="monospace" font-size="10">ISP sends 2 gateways via RA</text>
  <text x="141" y="170" text-anchor="middle" fill="#917030" font-family="monospace" font-size="9">OpenWrt picks first — it's dead</text>
  <!-- DIVIDER -->
  <line x1="30" y1="215" x2="870" y2="215" stroke="#21262d" stroke-width="1"/>
  <text x="450" y="228" text-anchor="middle" fill="#30363d" font-family="monospace" font-size="9" letter-spacing="3">RUNTIME / STARTUP ISSUES</text>
  <!-- FAILURE 3: race condition -->
  <rect x="30" y="238" width="200" height="68" rx="6" fill="#2a1f0d" stroke="#5a3e0a" stroke-width="1.5"/>
  <rect x="30" y="238" width="200" height="20" rx="6" fill="#5a3e0a"/>
  <rect x="30" y="248" width="200" height="10" fill="#5a3e0a"/>
  <text x="130" y="253" text-anchor="middle" fill="#d29922" font-family="monospace" font-size="11" font-weight="700">FAIL 3 — race condition</text>
  <text x="130" y="272" text-anchor="middle" fill="#b89040" font-family="monospace" font-size="10">wan6 starts before LLA ready</text>
  <text x="130" y="288" text-anchor="middle" fill="#917030" font-family="monospace" font-size="9">DHCPv6 fails — no default route</text>
  <!-- FAILURE 4: RA runtime override -->
  <rect x="245" y="238" width="200" height="68" rx="6" fill="#2a1f0d" stroke="#5a3e0a" stroke-width="1.5"/>
  <rect x="245" y="238" width="200" height="20" rx="6" fill="#5a3e0a"/>
  <rect x="245" y="248" width="200" height="10" fill="#5a3e0a"/>
  <text x="345" y="253" text-anchor="middle" fill="#d29922" font-family="monospace" font-size="11" font-weight="700">FAIL 4 — RA override</text>
  <text x="345" y="272" text-anchor="middle" fill="#b89040" font-family="monospace" font-size="10">New RA reinstalls dead gateway</text>
  <text x="345" y="288" text-anchor="middle" fill="#917030" font-family="monospace" font-size="9">Works at boot, breaks silently later</text>
  <!-- FAILURE 5: accept_ra=2 -->
  <rect x="460" y="238" width="200" height="68" rx="6" fill="#2a0d0d" stroke="#6e1a1a" stroke-width="1.5"/>
  <rect x="460" y="238" width="200" height="20" rx="6" fill="#6e1a1a"/>
  <rect x="460" y="248" width="200" height="10" fill="#6e1a1a"/>
  <text x="560" y="253" text-anchor="middle" fill="#f85149" font-family="monospace" font-size="11" font-weight="700">FAIL 5 — accept_ra=2</text>
  <text x="560" y="272" text-anchor="middle" fill="#e07070" font-family="monospace" font-size="10">Removes RA fallback from wan6</text>
  <text x="560" y="288" text-anchor="middle" fill="#956060" font-family="monospace" font-size="9">Complete IPv6 failure on every boot</text>
  <!-- FAILURE 6: NoPrefixAvail -->
  <rect x="675" y="238" width="195" height="68" rx="6" fill="#2a0d0d" stroke="#6e1a1a" stroke-width="1.5"/>
  <rect x="675" y="238" width="195" height="20" rx="6" fill="#6e1a1a"/>
  <rect x="675" y="248" width="195" height="10" fill="#6e1a1a"/>
  <text x="772" y="253" text-anchor="middle" fill="#f85149" font-family="monospace" font-size="11" font-weight="700">FAIL 6 — NoPrefixAvail</text>
  <text x="772" y="272" text-anchor="middle" fill="#e07070" font-family="monospace" font-size="10">ISP refuses prefix delegation</text>
  <text x="772" y="288" text-anchor="middle" fill="#956060" font-family="monospace" font-size="9">Stale lease — ISP-side issue</text>
  <!-- FIXES RAIL -->
  <line x1="30" y1="332" x2="870" y2="332" stroke="#1a4428" stroke-width="1"/>
  <text x="450" y="345" text-anchor="middle" fill="#1a4428" font-family="monospace" font-size="9" letter-spacing="3">FIXES APPLIED</text>
  <rect x="30" y="354" width="155" height="34" rx="5" fill="#0d2a16" stroke="#238636" stroke-width="1"/>
  <text x="107" y="368" text-anchor="middle" fill="#3fb950" font-family="monospace" font-size="10" font-weight="700">reqaddress=none</text>
  <text x="107" y="381" text-anchor="middle" fill="#4ec95a" font-family="monospace" font-size="9">blocks /128 IA_NA</text>
  <rect x="198" y="354" width="175" height="34" rx="5" fill="#0d2a16" stroke="#238636" stroke-width="1"/>
  <text x="285" y="368" text-anchor="middle" fill="#3fb950" font-family="monospace" font-size="10" font-weight="700">99-ipv6-setup</text>
  <text x="285" y="381" text-anchor="middle" fill="#4ec95a" font-family="monospace" font-size="9">best GW + MAC pin + /128</text>
  <rect x="386" y="354" width="165" height="34" rx="5" fill="#0d2a16" stroke="#238636" stroke-width="1"/>
  <text x="468" y="368" text-anchor="middle" fill="#3fb950" font-family="monospace" font-size="10" font-weight="700">98-wan6-delay</text>
  <text x="468" y="381" text-anchor="middle" fill="#4ec95a" font-family="monospace" font-size="9">5s delay + flap guard</text>
  <rect x="564" y="354" width="145" height="34" rx="5" fill="#0d2a16" stroke="#238636" stroke-width="1"/>
  <text x="636" y="368" text-anchor="middle" fill="#3fb950" font-family="monospace" font-size="10" font-weight="700">ipv6-watchdog</text>
  <text x="636" y="381" text-anchor="middle" fill="#4ec95a" font-family="monospace" font-size="9">GW fix + escalation</text>
  <rect x="722" y="354" width="148" height="34" rx="5" fill="#2a1f0d" stroke="#d29922" stroke-width="1"/>
  <text x="796" y="368" text-anchor="middle" fill="#d29922" font-family="monospace" font-size="10" font-weight="700">renew + bootstrap</text>
  <text x="796" y="381" text-anchor="middle" fill="#b89040" font-family="monospace" font-size="9">prefix recovery ladder</text>
</svg>
